<?xml version="1.0" encoding="utf-8"?>
<!-- Generator: Adobe Illustrator 16.0.4, SVG Export Plug-In . SVG Version: 6.00 Build 0)  -->
<!DOCTYPE svg PUBLIC "-//W3C//DTD SVG 1.1//EN" "http://www.w3.org/Graphics/SVG/1.1/DTD/svg11.dtd">
<svg version="1.1" id="Layer_1" xmlns="http://www.w3.org/2000/svg" xmlns:xlink="http://www.w3.org/1999/xlink" x="0px" y="0px"
	 width="892.718px" height="251.88px" viewBox="-0.001 0 892.718 251.88" enable-background="new -0.001 0 892.718 251.88"
	 xml:space="preserve">
<g>
	<g>
		<g>
			<path fill="#FCEE21" d="M118.787,208.756c9.377,0,17.72,4.514,22.971,11.481l2.936-5.224l-18.777-70.076
				c-2.134,0.543-4.369,0.832-6.672,0.832c-2.479,0-4.879-0.336-7.159-0.963l-18.398,69.256l2.968,5.115
				C101.931,212.817,109.893,208.756,118.787,208.756z"/>
		</g>
		<g>
			<path fill="#FCEE21" d="M88.417,233.893c0.062,0.017,0.122,0.031,0.183,0.047l-0.134-0.23L88.417,233.893z"/>
		</g>
		<g>
			<path fill="#B6D134" d="M88.173,233.829L88.173,233.829L88.173,233.829l0.115-0.427l-30.663-52.857l-22.584,22.681
				c15.349,15.285,33.83,25.514,53.373,30.686l0.004-0.018C88.336,233.872,88.254,233.85,88.173,233.829L88.173,233.829z"/>
		</g>
		<g>
			<path fill="#B6D134" d="M100.149,137.838L68.125,170l25.413,43.807l18.492-69.014
				C107.469,143.53,103.395,141.098,100.149,137.838z"/>
		</g>
		<g>
			<path fill="#B6D134" d="M88.288,233.402l-0.115,0.427l0,0l0,0l0,0c0.082,0.021,0.164,0.042,0.245,0.064l0.049-0.184
				L88.288,233.402z"/>
		</g>
		<g>
			<path fill="#B6D134" d="M112.03,144.793l-18.492,69.014l0.148,0.256l18.398-69.254
				C112.066,144.803,112.048,144.798,112.03,144.793z"/>
		</g>
		<g>
			<path fill="#35A849" d="M93.237,125.904l-43.823,11.843l18.631,32.117l32.064-32.065
				C96.879,134.541,94.475,130.461,93.237,125.904z"/>
		</g>
		<g>
			<path fill="#35A849" d="M34.897,203.012L34.897,203.012L34.897,203.012l22.632-22.633l-22.479-38.751l-30.902,8.351
				c5.65,20.912,16.542,39.011,30.88,53.261l0.014-0.015c-0.06-0.06-0.121-0.116-0.181-0.177L34.897,203.012z M34.858,203.046
				L34.858,203.046L34.858,203.046z"/>
		</g>
		<g>
			<path fill="#35A849" d="M57.529,180.379l-22.632,22.633h0.001h-0.001l-0.037,0.036c0.06,0.06,0.121,0.118,0.181,0.177
				l22.584-22.681L57.529,180.379z"/>
		</g>
		<g>
			<path fill="#35A849" d="M100.11,137.798l-32.064,32.065l0.08,0.137l32.024-32.162
				C100.136,137.826,100.123,137.811,100.11,137.798z"/>
		</g>
		<g>
			<path fill="#069D7E" d="M34.953,141.462L4.212,88.472l-0.197-0.053c-5.562,20.935-5.179,42.055,0.113,61.564l0.019-0.004
				c-0.021-0.082-0.045-0.162-0.066-0.244L34.953,141.462z"/>
		</g>
		<g>
			<path fill="#069D7E" d="M92.294,118.823c0-2.322,0.294-4.576,0.846-6.726L23.855,93.689l25.478,43.918l43.889-11.759
				C92.619,123.609,92.294,121.253,92.294,118.823z"/>
		</g>
		<g>
			<path fill="#069D7E" d="M34.953,141.462L4.08,149.735c0.022,0.082,0.045,0.162,0.067,0.244l30.902-8.352L34.953,141.462z"/>
		</g>
		<g>
			<path fill="#069D7E" d="M93.222,125.85l-43.889,11.76l0.08,0.138l43.823-11.843C93.232,125.885,93.227,125.868,93.222,125.85z"/>
		</g>
		<g>
			<path fill="#085BA7" d="M4.056,88.202c-0.019,0.071-0.039,0.142-0.058,0.212l0.018,0.004c0.018-0.065,0.034-0.131,0.052-0.197
				L4.056,88.202z"/>
		</g>
		<g>
			<path fill="#085BA7" d="M99.939,100.021l-51.76-51.54h-4.83c1.28,3.252,1.982,6.792,1.982,10.494
				c0,14.607-10.951,26.705-25.074,28.514l3.448,5.944l69.449,18.608C94.347,107.443,96.724,103.322,99.939,100.021z"/>
		</g>
		<g>
			<path fill="#085BA7" d="M93.141,112.097c0.005-0.018,0.01-0.037,0.015-0.055L23.707,93.434l0.149,0.257L93.141,112.097z"/>
		</g>
		<g>
			<path fill="#085BA7" d="M4.067,88.222c-0.018,0.066-0.034,0.132-0.052,0.197l0.197,0.053L4.067,88.222z"/>
		</g>
		<g>
			<path fill="#3F2F84" d="M87.929,4.147c-20.46,5.528-38.227,16.077-52.331,29.96h60.427L87.929,4.147z"/>
		</g>
		<g>
			<path fill="#3F2F84" d="M111.909,92.884l-12-44.403H48.48L99.979,99.98C103.224,96.664,107.317,94.181,111.909,92.884z"/>
		</g>
		<g>
			<path fill="#3F2F84" d="M99.939,100.021c0.013-0.014,0.026-0.027,0.04-0.041L48.48,48.48h-0.301L99.939,100.021z"/>
		</g>
		<g>
			<path fill="#5F2C83" d="M125.926,92.708l11.75-44.228H100.07l11.895,44.388c2.315-0.648,4.757-0.996,7.28-0.996
				C121.55,91.873,123.789,92.164,125.926,92.708z"/>
		</g>
		<g>
			<path fill="#5F2C83" d="M88.175,4.081L88.175,4.081l8.044,30.027h45.276l7.994-30.092c-20.935-5.562-42.054-5.179-61.563,0.113
				l0.005,0.019c0.082-0.021,0.162-0.045,0.244-0.067H88.175z"/>
		</g>
		<g>
			<path fill="#5F2C83" d="M96.219,34.107L88.174,4.081c-0.001,0-0.001,0-0.002,0c0,0,0.001,0,0.002,0
				c-0.082,0.022-0.163,0.046-0.244,0.067l8.096,29.96L96.219,34.107L96.219,34.107z"/>
		</g>
		<g>
			<path fill="#5F2C83" d="M111.964,92.869L100.07,48.48h-0.161l12,44.403C111.927,92.878,111.945,92.874,111.964,92.869z"/>
		</g>
		<g>
			<path fill="#7E2982" d="M149.732,4.081L149.732,4.081h0.002H149.732l-8.045,30.027h60.593
				c-15.232-14.965-33.492-25.003-52.787-30.109l-0.005,0.018c0.082,0.021,0.164,0.043,0.245,0.064
				C149.733,4.081,149.733,4.081,149.732,4.081z"/>
		</g>
		<g>
			<path fill="#7E2982" d="M138.178,99.647l50.95-51.167h-51.291l-11.855,44.241C130.66,93.926,134.845,96.356,138.178,99.647z"/>
		</g>
		<g>
			<path fill="#7E2982" d="M141.688,34.107l8.046-30.027c-0.082-0.021-0.163-0.043-0.245-0.064l-7.994,30.092L141.688,34.107
				L141.688,34.107z"/>
		</g>
		<g>
			<path fill="#7E2982" d="M125.926,92.708c0.019,0.005,0.037,0.009,0.056,0.014l11.855-44.241h-0.161L125.926,92.708z"/>
		</g>
		<g>
			<path fill="#CB202D" d="M192.241,58.975c0-3.702,0.704-7.242,1.983-10.494h-4.797l-51.208,51.208
				c3.335,3.307,5.809,7.479,7.059,12.152l67.701-18.295l3.475-6.182C202.749,85.184,192.241,73.284,192.241,58.975z"/>
		</g>
		<g>
			<path fill="#CB202D" d="M232.42,88.292l1.339-0.362c-0.123-0.453-0.248-0.903-0.375-1.354L232.42,88.292z"/>
		</g>
		<g>
			<path fill="#CB202D" d="M138.219,99.688l51.208-51.208h-0.299l-50.95,51.167C138.192,99.662,138.205,99.674,138.219,99.688z"/>
		</g>
		<g>
			<path fill="#E54B27" d="M146.193,118.823c0,2.463-0.332,4.849-0.951,7.116l43.092,11.449l24.503-43.589l-67.543,18.099
				C145.879,114.106,146.193,116.427,146.193,118.823z"/>
		</g>
		<g>
			<path fill="#E54B27" d="M233.828,88.175L233.828,88.175l-1.579,0.422l-29.57,52.601l31.18,8.282
				c-0.021,0.082-0.045,0.164-0.067,0.246l0.035,0.009v-0.001v0.001c5.631-21.015,5.264-42.224-0.049-61.811l-0.019,0.005
				C233.782,88.012,233.805,88.092,233.828,88.175L233.828,88.175z"/>
		</g>
		<g>
			<path fill="#E54B27" d="M145.293,111.896l67.543-18.099l0.143-0.252l-67.701,18.295
				C145.283,111.86,145.288,111.877,145.293,111.896z"/>
		</g>
		<g>
			<path fill="#E54B27" d="M232.249,88.598l1.578-0.423c-0.021-0.082-0.045-0.163-0.066-0.244l-1.339,0.362L232.249,88.598z"/>
		</g>
		<g>
			<path fill="#ED7125" d="M138.127,138.046l31.95,31.814l18.179-32.337l-43.03-11.529
				C143.949,130.632,141.462,134.77,138.127,138.046z"/>
		</g>
		<g>
			<path fill="#ED7125" d="M180.648,180.387l22.539,22.443c15.215-15.278,25.415-33.661,30.605-53.105l-31.207-8.361
				L180.648,180.387z"/>
		</g>
		<g>
			<path fill="#ED7125" d="M202.679,141.198l-0.094,0.166l31.207,8.361c0.022-0.082,0.045-0.162,0.067-0.244L202.679,141.198z"/>
		</g>
		<g>
			<path fill="#ED7125" d="M145.226,125.995l43.03,11.529l0.078-0.139l-43.092-11.448
				C145.236,125.957,145.231,125.976,145.226,125.995z"/>
		</g>
		<g>
			<path fill="#F7AB1B" d="M125.971,144.924l18.87,69.828L169.999,170l-31.914-31.914
				C134.766,141.334,130.611,143.733,125.971,144.924z"/>
		</g>
		<g>
			<path fill="#F7AB1B" d="M180.554,180.555l-29.788,52.987c20.577-5.709,38.401-16.504,52.472-30.662l-0.051-0.05
				c-0.061,0.061-0.117,0.121-0.177,0.18L180.554,180.555z M203.047,203.047c0.001-0.001,0.001-0.001,0.002-0.002
				C203.048,203.046,203.048,203.046,203.047,203.047L203.047,203.047L203.047,203.047z"/>
		</g>
		<g>
			<path fill="#F7AB1B" d="M125.915,144.938l18.777,70.078l0.148-0.264l-18.87-69.828
				C125.953,144.93,125.934,144.934,125.915,144.938z"/>
		</g>
		<g>
			<path fill="#F7AB1B" d="M138.127,138.046c-0.014,0.015-0.028,0.027-0.042,0.04L169.999,170l0.078-0.139L138.127,138.046z"/>
		</g>
		<g>
			<path fill="#F7AB1B" d="M180.554,180.555l22.456,22.457c0.06-0.061,0.118-0.121,0.177-0.181l-22.539-22.442L180.554,180.555z"/>
		</g>
		<g>
			<path fill="#FCEE21" d="M104.421,237.002c-0.006,0.167-0.01,0.334-0.01,0.502c0,7.926,6.448,14.375,14.375,14.375
				s14.375-6.449,14.375-14.375c0-0.148-0.003-0.297-0.007-0.445C123.754,238.194,114.117,238.208,104.421,237.002z"/>
		</g>
		<g>
			<path fill="#FCEE21" d="M118.787,223.129c-7.758,0-14.1,6.18-14.365,13.873c9.696,1.206,19.333,1.191,28.732,0.057
				C132.918,229.338,126.564,223.129,118.787,223.129z"/>
		</g>
		<g>
			<path fill="#CB202D" d="M235.364,58.975c0-7.926-6.448-14.375-14.375-14.375c-2.755,0-5.331,0.78-7.521,2.129
				c5.755,7.524,10.666,15.818,14.552,24.78C232.399,69.042,235.364,64.349,235.364,58.975z"/>
		</g>
		<g>
			<path fill="#CB202D" d="M206.614,58.975c0,7.926,6.448,14.375,14.375,14.375c2.552,0,4.951-0.67,7.031-1.841
				c-3.886-8.962-8.797-17.256-14.552-24.78C209.359,49.262,206.614,53.804,206.614,58.975z"/>
		</g>
		<g>
			<path fill="#085BA7" d="M16.584,44.6c-7.926,0-14.375,6.449-14.375,14.375c0,5.479,3.081,10.25,7.601,12.676
				c3.76-8.684,8.602-17.01,14.532-24.773C22.103,45.436,19.439,44.6,16.584,44.6z"/>
		</g>
		<g>
			<path fill="#085BA7" d="M30.959,58.975c0-5.071-2.64-9.538-6.617-12.097c-5.93,7.763-10.771,16.09-14.532,24.773
				c2.02,1.083,4.326,1.7,6.774,1.7C24.511,73.351,30.959,66.901,30.959,58.975z"/>
		</g>
		<g>
			<path fill="#FFFFFF" d="M233.385,86.577l1.314-2.34c-0.569,0.31-1.149,0.601-1.742,0.873
				C233.103,85.598,233.246,86.085,233.385,86.577z"/>
		</g>
		<g>
			<path fill="#FFFFFF" d="M88.601,233.94l1.459,2.517c0.025-0.707,0.076-1.408,0.152-2.101
				C89.675,234.221,89.138,234.083,88.601,233.94z"/>
		</g>
	</g>
	<g>
		<path fill="#444444" d="M330.265,172.906c-1.66-0.521-2.719-1.465-3.174-2.832l-27.539-80.859
			c-0.065-0.391-0.195-0.928-0.391-1.611s-0.293-1.187-0.293-1.514c0-1.302,0.845-2.261,2.539-2.881
			c1.692-0.618,4.361-0.928,8.008-0.928h5.664c2.798,0,5.044,0.278,6.738,0.83c1.692,0.554,2.734,1.481,3.125,2.783l10.156,32.031
			c0.325,1.172,1.333,5.404,3.027,12.695l1.855,8.301h0.781c2.017-10.221,3.613-17.22,4.785-20.996l10.254-32.031
			c0.391-1.302,1.416-2.229,3.076-2.783c1.66-0.552,3.89-0.83,6.689-0.83h4.297c3.58,0,6.201,0.31,7.861,0.928
			c1.66,0.62,2.49,1.579,2.49,2.881c0,1.042-0.163,2.084-0.488,3.125l-27.637,80.859c-0.391,1.303-1.416,2.23-3.076,2.783
			s-3.857,0.83-6.592,0.83h-5.566C334.122,173.687,331.925,173.426,330.265,172.906z"/>
		<path fill="#444444" d="M394.922,66.265c-1.66-0.911-2.49-2.31-2.49-4.199V48.101c0-1.888,0.845-3.304,2.539-4.248
			c1.692-0.943,4.329-1.416,7.91-1.416h4.785c3.58,0,6.216,0.473,7.91,1.416c1.692,0.944,2.539,2.36,2.539,4.248v13.965
			c0,1.889-0.83,3.288-2.49,4.199c-1.66,0.913-4.313,1.367-7.959,1.367h-4.785C399.234,67.632,396.583,67.178,394.922,66.265z
			 M392.432,168.218V87.75c0-1.822,0.845-3.189,2.539-4.102c1.692-0.911,4.329-1.367,7.91-1.367h4.785
			c3.58,0,6.216,0.456,7.91,1.367c1.692,0.913,2.539,2.28,2.539,4.102v80.469c0,3.646-3.483,5.469-10.449,5.469h-4.785
			C395.914,173.687,392.432,171.865,392.432,168.218z"/>
		<path fill="#444444" d="M448.775,173.394c-4.428-0.977-8.09-2.376-10.986-4.199c-2.897-1.822-4.346-3.906-4.346-6.25
			c0-1.432,0.521-3.223,1.562-5.371c1.041-2.148,2.295-4.02,3.76-5.615c1.465-1.595,2.75-2.393,3.857-2.393
			c0.586,0,1.855,0.456,3.809,1.367c2.278,1.042,4.458,1.889,6.543,2.539c2.083,0.651,4.458,0.977,7.129,0.977
			c3.32,0,5.826-0.618,7.52-1.855c1.692-1.236,2.539-3.06,2.539-5.469c0-1.822-0.505-3.336-1.514-4.541
			c-1.01-1.204-2.295-2.197-3.857-2.979s-3.776-1.725-6.641-2.832l-2.832-1.074c-3.711-1.432-6.967-3.06-9.766-4.883
			c-2.8-1.822-5.176-4.476-7.129-7.959c-1.953-3.482-2.93-7.894-2.93-13.232c0-5.924,1.285-11.019,3.857-15.283
			c2.571-4.263,6.233-7.52,10.986-9.766c4.751-2.246,10.352-3.369,16.797-3.369c3.711,0,7.583,0.358,11.621,1.074
			c4.036,0.717,7.437,1.823,10.205,3.32c2.767,1.499,4.15,3.386,4.15,5.664c0,1.303-0.407,3.061-1.221,5.273
			c-0.815,2.214-1.807,4.167-2.979,5.859c-1.172,1.693-2.28,2.539-3.32,2.539c-0.327,0-1.237-0.293-2.734-0.879
			c-2.019-0.846-3.955-1.514-5.811-2.002s-3.989-0.732-6.396-0.732c-6.12,0-9.18,2.019-9.18,6.055c0,1.823,0.569,3.386,1.709,4.688
			c1.138,1.303,2.554,2.377,4.248,3.223c1.692,0.847,4.068,1.855,7.129,3.027c3.516,1.433,5.696,2.344,6.543,2.734
			c4.556,2.279,8.218,5.29,10.986,9.033c2.767,3.744,4.15,8.74,4.15,14.99c0,5.925-1.335,11.133-4.004,15.625
			c-2.671,4.492-6.577,7.976-11.719,10.449c-5.144,2.474-11.264,3.711-18.359,3.711
			C457.662,174.859,453.202,174.371,448.775,173.394z"/>
		<path fill="#444444" d="M514.18,167.876c-4.136-4.654-6.201-10.823-6.201-18.506c0-5.794,1.204-11.019,3.613-15.674
			c2.407-4.654,7.29-8.577,14.648-11.768c7.356-3.189,17.871-4.785,31.543-4.785v-5.762c0-3.385-1.074-5.892-3.223-7.52
			c-2.148-1.627-5.566-2.441-10.254-2.441c-3.906,0-7.26,0.407-10.059,1.221c-2.8,0.814-5.827,1.904-9.082,3.271
			c-1.694,0.781-2.734,1.172-3.125,1.172c-1.172,0-2.458-0.879-3.857-2.637c-1.401-1.758-2.622-3.775-3.662-6.055
			c-1.042-2.278-1.562-4.004-1.562-5.176c0-2.018,1.448-3.955,4.346-5.811c2.896-1.855,6.885-3.353,11.963-4.492
			c5.078-1.138,10.709-1.709,16.895-1.709c13.021,0,22.493,2.588,28.418,7.764c5.924,5.176,8.887,12.256,8.887,21.24v32.52
			c0,5.404,0.146,9.604,0.439,12.598c0.293,2.995,0.699,5.957,1.221,8.887c0.325,1.758,0.488,2.995,0.488,3.711
			c0,1.303-1.221,2.377-3.662,3.223c-2.441,0.847-5.225,1.465-8.35,1.855s-5.632,0.586-7.52,0.586c-2.019,0-3.467-0.862-4.346-2.588
			c-0.879-1.725-1.579-4.085-2.1-7.08c-0.065-0.391-0.131-0.781-0.195-1.172c-0.065-0.391-0.163-0.781-0.293-1.172
			c-0.651,1.237-2.035,2.897-4.15,4.98c-2.116,2.084-4.997,3.988-8.643,5.713c-3.646,1.725-7.878,2.588-12.695,2.588
			C524.808,174.859,518.313,172.532,514.18,167.876z M551.338,151.373c2.864-2.051,5.013-4.671,6.445-7.861v-9.57
			c-16.211,0-24.316,4.265-24.316,12.793c0,2.279,0.765,4.135,2.295,5.566c1.529,1.433,3.662,2.148,6.396,2.148
			C545.413,154.449,548.473,153.423,551.338,151.373z"/>
		<path fill="#444444" d="M604.343,168.218V113.14c0-8.333-0.554-15.267-1.66-20.801c-0.326-1.758-0.488-2.994-0.488-3.711
			c0-1.302,1.221-2.359,3.662-3.174c2.441-0.813,5.208-1.416,8.301-1.807c3.092-0.391,5.582-0.586,7.471-0.586
			c2.018,0,3.434,0.749,4.248,2.246c0.813,1.499,1.546,3.679,2.197,6.543l0.586,2.539c2.213-4.036,4.769-7.242,7.666-9.619
			c2.896-2.376,6.624-3.564,11.182-3.564c3.775,0,6.38,0.961,7.812,2.881c1.432,1.921,2.148,4.086,2.148,6.494
			c0,1.303-0.229,3.142-0.684,5.518c-0.456,2.377-1.107,4.477-1.953,6.299c-0.847,1.823-1.791,2.734-2.832,2.734
			c-0.717,0-1.791-0.195-3.223-0.586c-1.953-0.521-3.613-0.781-4.98-0.781c-3.19,0-5.974,0.896-8.35,2.686
			c-2.377,1.791-4.184,3.793-5.42,6.006v55.762c0,3.646-3.516,5.469-10.547,5.469h-4.785
			C607.793,173.687,604.343,171.865,604.343,168.218z"/>
		<path fill="#444444" d="M680.933,167.876c-4.33-4.654-6.494-11.734-6.494-21.24v-43.75h-2.734c-1.823,0-3.142-0.684-3.955-2.051
			c-0.814-1.367-1.221-3.58-1.221-6.641v-2.93c0-3.06,0.406-5.273,1.221-6.641c0.813-1.367,2.132-2.051,3.955-2.051h2.734
			l2.246-16.504c0.521-3.646,3.646-5.469,9.375-5.469h5.469c2.994,0,5.191,0.456,6.592,1.367c1.399,0.913,2.1,2.28,2.1,4.102v16.504
			h8.496c1.822,0,3.141,0.684,3.955,2.051c0.813,1.367,1.221,3.581,1.221,6.641v2.93c0,3.061-0.407,5.273-1.221,6.641
			c-0.814,1.367-2.133,2.051-3.955,2.051h-8.496v44.043c0,2.67,0.472,4.59,1.416,5.762c0.943,1.172,2.522,1.758,4.736,1.758
			c0.65,0,1.529-0.113,2.637-0.342c1.106-0.228,1.79-0.342,2.051-0.342c1.041,0,1.969,0.863,2.783,2.588
			c0.813,1.726,1.465,3.63,1.953,5.713c0.488,2.084,0.732,3.483,0.732,4.199c0,5.729-5.566,8.594-16.699,8.594
			C691.561,174.859,685.262,172.532,680.933,167.876z"/>
		<path fill="#444444" d="M732.296,66.265c-1.66-0.911-2.49-2.31-2.49-4.199V48.101c0-1.888,0.846-3.304,2.539-4.248
			c1.692-0.943,4.329-1.416,7.91-1.416h4.785c3.58,0,6.217,0.473,7.91,1.416c1.692,0.944,2.539,2.36,2.539,4.248v13.965
			c0,1.889-0.83,3.288-2.49,4.199c-1.66,0.913-4.313,1.367-7.959,1.367h-4.785C736.608,67.632,733.956,67.178,732.296,66.265z
			 M729.806,168.218V87.75c0-1.822,0.846-3.189,2.539-4.102c1.692-0.911,4.329-1.367,7.91-1.367h4.785
			c3.58,0,6.217,0.456,7.91,1.367c1.692,0.913,2.539,2.28,2.539,4.102v80.469c0,3.646-3.483,5.469-10.449,5.469h-4.785
			C733.288,173.687,729.806,171.865,729.806,168.218z"/>
		<path fill="#444444" d="M786.149,173.394c-4.428-0.977-8.09-2.376-10.986-4.199c-2.897-1.822-4.346-3.906-4.346-6.25
			c0-1.432,0.521-3.223,1.562-5.371c1.041-2.148,2.295-4.02,3.76-5.615c1.465-1.595,2.75-2.393,3.857-2.393
			c0.586,0,1.855,0.456,3.809,1.367c2.278,1.042,4.459,1.889,6.543,2.539c2.083,0.651,4.459,0.977,7.129,0.977
			c3.32,0,5.826-0.618,7.52-1.855c1.692-1.236,2.539-3.06,2.539-5.469c0-1.822-0.505-3.336-1.514-4.541
			c-1.01-1.204-2.295-2.197-3.857-2.979s-3.776-1.725-6.641-2.832l-2.832-1.074c-3.711-1.432-6.967-3.06-9.766-4.883
			c-2.8-1.822-5.176-4.476-7.129-7.959c-1.953-3.482-2.93-7.894-2.93-13.232c0-5.924,1.285-11.019,3.857-15.283
			c2.571-4.263,6.233-7.52,10.986-9.766c4.752-2.246,10.352-3.369,16.797-3.369c3.711,0,7.584,0.358,11.621,1.074
			c4.036,0.717,7.438,1.823,10.205,3.32c2.767,1.499,4.15,3.386,4.15,5.664c0,1.303-0.407,3.061-1.221,5.273
			c-0.814,2.214-1.807,4.167-2.979,5.859c-1.172,1.693-2.279,2.539-3.32,2.539c-0.326,0-1.237-0.293-2.734-0.879
			c-2.019-0.846-3.955-1.514-5.811-2.002s-3.988-0.732-6.396-0.732c-6.12,0-9.18,2.019-9.18,6.055c0,1.823,0.569,3.386,1.709,4.688
			c1.139,1.303,2.555,2.377,4.248,3.223c1.692,0.847,4.068,1.855,7.129,3.027c3.516,1.433,5.696,2.344,6.543,2.734
			c4.557,2.279,8.219,5.29,10.986,9.033c2.767,3.744,4.15,8.74,4.15,14.99c0,5.925-1.335,11.133-4.004,15.625
			c-2.67,4.492-6.576,7.976-11.719,10.449c-5.144,2.474-11.264,3.711-18.359,3.711C795.036,174.859,790.576,174.371,786.149,173.394
			z"/>
		<path fill="#444444" d="M857.121,167.876c-4.33-4.654-6.494-11.734-6.494-21.24v-43.75h-2.734c-1.823,0-3.142-0.684-3.955-2.051
			c-0.814-1.367-1.221-3.58-1.221-6.641v-2.93c0-3.06,0.406-5.273,1.221-6.641c0.813-1.367,2.132-2.051,3.955-2.051h2.734
			l2.246-16.504c0.521-3.646,3.646-5.469,9.375-5.469h5.469c2.994,0,5.191,0.456,6.592,1.367c1.399,0.913,2.1,2.28,2.1,4.102v16.504
			h8.496c1.822,0,3.141,0.684,3.955,2.051c0.813,1.367,1.221,3.581,1.221,6.641v2.93c0,3.061-0.407,5.273-1.221,6.641
			c-0.814,1.367-2.133,2.051-3.955,2.051h-8.496v44.043c0,2.67,0.472,4.59,1.416,5.762c0.943,1.172,2.522,1.758,4.736,1.758
			c0.65,0,1.529-0.113,2.637-0.342c1.106-0.228,1.79-0.342,2.051-0.342c1.041,0,1.969,0.863,2.783,2.588
			c0.813,1.726,1.465,3.63,1.953,5.713c0.488,2.084,0.732,3.483,0.732,4.199c0,5.729-5.566,8.594-16.699,8.594
			C867.749,174.859,861.45,172.532,857.121,167.876z"/>
	</g>
</g>
</svg>
