<?xml version="1.0" encoding="utf-8"?>
<!-- Generator: Adobe Illustrator 16.0.4, SVG Export Plug-In . SVG Version: 6.00 Build 0)  -->
<!DOCTYPE svg PUBLIC "-//W3C//DTD SVG 1.1//EN" "http://www.w3.org/Graphics/SVG/1.1/DTD/svg11.dtd">
<svg version="1.1" id="Layer_1" xmlns="http://www.w3.org/2000/svg" xmlns:xlink="http://www.w3.org/1999/xlink" x="0px" y="0px"
	 width="952.197px" height="251.88px" viewBox="-2655.144 -546.206 952.197 251.88"
	 enable-background="new -2655.144 -546.206 952.197 251.88" xml:space="preserve">
<g>
	<g>
		<path fill="#FCEE21" d="M-2536.356-337.449c9.377,0,17.72,4.513,22.971,11.481l2.936-5.223l-18.777-70.077
			c-2.134,0.543-4.369,0.833-6.672,0.833c-2.479,0-4.879-0.336-7.159-0.963l-18.398,69.255l2.968,5.116
			C-2553.212-333.389-2545.25-337.449-2536.356-337.449z"/>
		<path fill="#FCEE21" d="M-2566.726-312.313c0.062,0.017,0.122,0.032,0.183,0.048l-0.134-0.231L-2566.726-312.313z"/>
		<path fill="#B6D134" d="M-2566.97-312.377L-2566.97-312.377L-2566.97-312.377l0.115-0.427l-30.663-52.857l-22.584,22.681
			c15.349,15.285,33.83,25.513,53.373,30.685l0.004-0.018C-2566.807-312.334-2566.889-312.355-2566.97-312.377L-2566.97-312.377z"/>
		<path fill="#B6D134" d="M-2554.994-408.367l-32.025,32.162l25.413,43.807l18.492-69.014
			C-2547.674-402.676-2551.748-405.108-2554.994-408.367z"/>
		<path fill="#B6D134" d="M-2566.855-312.804l-0.115,0.427h0h0v0c0.082,0.021,0.164,0.042,0.245,0.064l0.049-0.183
			L-2566.855-312.804z"/>
		<path fill="#B6D134" d="M-2543.113-401.412l-18.492,69.014l0.148,0.256l18.398-69.255
			C-2543.077-401.402-2543.095-401.407-2543.113-401.412z"/>
		<path fill="#35A849" d="M-2561.906-420.302l-43.823,11.843l18.631,32.117l32.065-32.065
			C-2558.264-411.665-2560.668-415.744-2561.906-420.302z"/>
		<path fill="#35A849" d="M-2620.246-343.194L-2620.246-343.194L-2620.246-343.194l22.632-22.632l-22.48-38.751l-30.902,8.351
			c5.65,20.912,16.542,39.01,30.88,53.26l0.014-0.014c-0.06-0.06-0.121-0.117-0.181-0.177L-2620.246-343.194z M-2620.285-343.159
			l0.001,0.001L-2620.285-343.159z"/>
		<path fill="#35A849" d="M-2597.614-365.826l-22.632,22.632l0.001,0.001l-0.001-0.001l-0.037,0.037
			c0.06,0.06,0.121,0.118,0.181,0.177l22.584-22.681L-2597.614-365.826z"/>
		<path fill="#35A849" d="M-2555.033-408.407l-32.065,32.065l0.08,0.137l32.025-32.162
			C-2555.007-408.38-2555.02-408.394-2555.033-408.407z"/>
		<path fill="#069D7E" d="M-2620.19-404.743l-30.741-52.991l-0.197-0.053c-5.562,20.935-5.179,42.055,0.113,61.565l0.019-0.005
			c-0.022-0.082-0.045-0.162-0.067-0.244L-2620.19-404.743z"/>
		<path fill="#069D7E" d="M-2562.849-427.383c0-2.322,0.294-4.576,0.846-6.726l-69.285-18.407l25.478,43.919l43.889-11.76
			C-2562.524-422.597-2562.849-424.952-2562.849-427.383z"/>
		<path fill="#069D7E" d="M-2620.19-404.743l-30.873,8.272c0.022,0.082,0.045,0.162,0.067,0.244l30.902-8.351L-2620.19-404.743z"/>
		<path fill="#069D7E" d="M-2561.921-420.356l-43.889,11.76l0.08,0.138l43.823-11.843
			C-2561.911-420.32-2561.916-420.338-2561.921-420.356z"/>
		<path fill="#085BA7" d="M-2651.087-458.004c-0.019,0.071-0.039,0.142-0.058,0.212l0.018,0.004
			c0.018-0.065,0.034-0.131,0.052-0.197L-2651.087-458.004z"/>
		<path fill="#085BA7" d="M-2555.204-446.185l-51.76-51.54h-4.83c1.28,3.252,1.983,6.792,1.983,10.494
			c0,14.607-10.951,26.705-25.074,28.514l3.448,5.944l69.449,18.608C-2560.796-438.763-2558.419-442.884-2555.204-446.185z"/>
		<path fill="#085BA7" d="M-2562.002-434.109c0.005-0.018,0.01-0.037,0.015-0.055l-69.449-18.608l0.149,0.257L-2562.002-434.109z"/>
		<path fill="#085BA7" d="M-2651.076-457.984c-0.018,0.066-0.034,0.132-0.052,0.197l0.197,0.053L-2651.076-457.984z"/>
		<path fill="#3F2F84" d="M-2567.214-542.058c-20.46,5.528-38.226,16.077-52.331,29.96h60.427L-2567.214-542.058z"/>
		<path fill="#3F2F84" d="M-2543.234-453.321l-12-44.403h-51.429l51.499,51.499
			C-2551.919-449.542-2547.826-452.025-2543.234-453.321z"/>
		<path fill="#3F2F84" d="M-2555.204-446.185c0.013-0.014,0.026-0.027,0.04-0.041l-51.499-51.499h-0.301L-2555.204-446.185z"/>
		<path fill="#5F2C83" d="M-2529.217-453.497l11.75-44.228h-37.606l11.894,44.388c2.316-0.648,4.757-0.996,7.28-0.996
			C-2533.593-454.333-2531.354-454.042-2529.217-453.497z"/>
		<path fill="#5F2C83" d="M-2566.968-542.125h-0.001l8.045,30.027h45.276l7.994-30.092c-20.935-5.562-42.054-5.179-61.564,0.113
			l0.005,0.019c0.082-0.021,0.162-0.045,0.244-0.067H-2566.968z"/>
		<path fill="#5F2C83" d="M-2558.924-512.098l-8.045-30.027c-0.001,0-0.001,0-0.002,0c0,0,0.001,0,0.002,0
			c-0.082,0.022-0.163,0.046-0.244,0.067l8.096,29.96H-2558.924z"/>
		<path fill="#5F2C83" d="M-2543.179-453.337l-11.894-44.388h-0.161l12,44.403C-2543.216-453.327-2543.198-453.332-2543.179-453.337
			z"/>
		<path fill="#7E2982" d="M-2505.411-542.125c0,0,0.001,0,0.001,0l0.001,0l-0.001,0l-8.046,30.027h60.593
			c-15.232-14.965-33.492-25.003-52.787-30.109l-0.005,0.018c0.082,0.021,0.164,0.043,0.245,0.064
			C-2505.41-542.125-2505.41-542.125-2505.411-542.125z"/>
		<path fill="#7E2982" d="M-2516.965-446.558l50.95-51.167h-51.291l-11.855,44.241
			C-2524.483-452.279-2520.298-449.849-2516.965-446.558z"/>
		<path fill="#7E2982" d="M-2513.455-512.098l8.046-30.027c-0.082-0.021-0.163-0.043-0.245-0.064l-7.994,30.092H-2513.455z"/>
		<path fill="#7E2982" d="M-2529.217-453.497c0.019,0.005,0.037,0.009,0.056,0.014l11.855-44.241h-0.161L-2529.217-453.497z"/>
		<path fill="#CB202D" d="M-2462.902-487.231c0-3.702,0.704-7.242,1.983-10.494h-4.797l-51.208,51.208
			c3.335,3.307,5.809,7.479,7.059,12.152l67.701-18.295l3.475-6.182C-2452.394-461.022-2462.902-472.922-2462.902-487.231z"/>
		<path fill="#CB202D" d="M-2422.723-457.914l1.339-0.362c-0.123-0.453-0.248-0.903-0.375-1.354L-2422.723-457.914z"/>
		<path fill="#CB202D" d="M-2516.924-446.517l51.208-51.208h-0.299l-50.95,51.167
			C-2516.951-446.544-2516.938-446.531-2516.924-446.517z"/>
		<path fill="#E54B27" d="M-2508.95-427.383c0,2.463-0.332,4.849-0.951,7.116l43.092,11.448l24.503-43.588l-67.543,18.099
			C-2509.264-432.099-2508.95-429.778-2508.95-427.383z"/>
		<path fill="#E54B27" d="M-2421.315-458.03L-2421.315-458.03l-1.579,0.422l-29.57,52.601l31.18,8.283
			c-0.021,0.082-0.045,0.163-0.067,0.245l0.035,0.009l0-0.001l0,0.001c5.631-21.015,5.264-42.224-0.049-61.81l-0.019,0.005
			C-2421.361-458.194-2421.338-458.113-2421.315-458.03L-2421.315-458.03z"/>
		<path fill="#E54B27" d="M-2509.85-434.309l67.543-18.099l0.143-0.252l-67.701,18.295
			C-2509.86-434.346-2509.855-434.328-2509.85-434.309z"/>
		<path fill="#E54B27" d="M-2422.894-457.608l1.578-0.423c-0.022-0.082-0.045-0.163-0.067-0.244l-1.339,0.362L-2422.894-457.608z"/>
		<path fill="#ED7125" d="M-2517.016-408.159l31.95,31.814l18.179-32.337l-43.03-11.529
			C-2511.194-415.573-2513.681-411.436-2517.016-408.159z"/>
		<path fill="#ED7125" d="M-2474.495-365.818l22.539,22.443c15.215-15.278,25.415-33.661,30.605-53.105l-31.207-8.362
			L-2474.495-365.818z"/>
		<path fill="#ED7125" d="M-2452.464-405.008l-0.094,0.166l31.207,8.362c0.022-0.082,0.045-0.163,0.067-0.245L-2452.464-405.008z"/>
		<path fill="#ED7125" d="M-2509.917-420.211l43.03,11.529l0.078-0.138l-43.092-11.448
			C-2509.907-420.249-2509.912-420.23-2509.917-420.211z"/>
		<path fill="#F7AB1B" d="M-2529.172-401.281l18.87,69.828l25.158-44.752l-31.914-31.914
			C-2520.377-404.871-2524.532-402.473-2529.172-401.281z"/>
		<path fill="#F7AB1B" d="M-2474.589-365.65l-29.788,52.987c20.577-5.709,38.401-16.504,52.472-30.662l-0.051-0.05
			c-0.06,0.06-0.117,0.121-0.177,0.18L-2474.589-365.65z M-2452.096-343.158c0.001-0.001,0.001-0.001,0.002-0.002
			C-2452.095-343.159-2452.095-343.159-2452.096-343.158l-0.001,0.001L-2452.096-343.158z"/>
		<path fill="#F7AB1B" d="M-2529.228-401.267l18.777,70.077l0.148-0.263l-18.87-69.828
			C-2529.19-401.276-2529.209-401.272-2529.228-401.267z"/>
		<path fill="#F7AB1B" d="M-2517.016-408.159c-0.014,0.014-0.028,0.027-0.042,0.04l31.914,31.914l0.078-0.139L-2517.016-408.159z"/>
		<path fill="#F7AB1B" d="M-2474.589-365.65l22.456,22.456c0.06-0.06,0.118-0.121,0.177-0.18l-22.539-22.443L-2474.589-365.65z"/>
		<path fill="#FCEE21" d="M-2550.722-309.203c-0.006,0.167-0.01,0.334-0.01,0.502c0,7.926,6.448,14.375,14.375,14.375
			s14.375-6.449,14.375-14.375c0-0.149-0.003-0.297-0.007-0.445C-2531.389-308.012-2541.026-307.997-2550.722-309.203z"/>
		<path fill="#FCEE21" d="M-2536.356-323.076c-7.758,0-14.1,6.179-14.365,13.873c9.696,1.206,19.333,1.191,28.733,0.057
			C-2522.225-316.867-2528.579-323.076-2536.356-323.076z"/>
		<path fill="#CB202D" d="M-2419.779-487.231c0-7.926-6.448-14.375-14.375-14.375c-2.755,0-5.331,0.78-7.521,2.129
			c5.755,7.524,10.666,15.818,14.552,24.78C-2422.744-477.163-2419.779-481.857-2419.779-487.231z"/>
		<path fill="#CB202D" d="M-2448.529-487.231c0,7.926,6.448,14.375,14.375,14.375c2.552,0,4.951-0.67,7.031-1.841
			c-3.886-8.962-8.797-17.256-14.552-24.78C-2445.784-496.944-2448.529-492.402-2448.529-487.231z"/>
		<path fill="#085BA7" d="M-2638.559-501.606c-7.926,0-14.375,6.449-14.375,14.375c0,5.479,3.081,10.25,7.601,12.676
			c3.76-8.683,8.602-17.01,14.532-24.773C-2633.04-500.77-2635.704-501.606-2638.559-501.606z"/>
		<path fill="#085BA7" d="M-2624.184-487.231c0-5.071-2.64-9.538-6.617-12.097c-5.93,7.763-10.771,16.09-14.532,24.773
			c2.02,1.083,4.326,1.7,6.774,1.7C-2630.632-472.855-2624.184-479.305-2624.184-487.231z"/>
		<path fill="#FFFFFF" d="M-2421.758-459.629l1.315-2.34c-0.569,0.31-1.15,0.601-1.742,0.873
			C-2422.04-460.608-2421.897-460.12-2421.758-459.629z"/>
		<path fill="#FFFFFF" d="M-2566.542-312.265l1.459,2.516c0.025-0.707,0.076-1.408,0.152-2.101
			C-2565.468-311.984-2566.005-312.123-2566.542-312.265z"/>
	</g>
	<g>
		<g>
			<path fill="#444444" d="M-2324.166-363.974c-1.463-0.498-2.371-1.332-2.723-2.505l-33.717-100.357
				c-0.47-1.405-0.702-2.34-0.702-2.81c0-2.34,3.19-3.513,9.57-3.513h5.093c5.209,0,8.282,1.552,9.219,4.651l21.073,67.523
				l1.758,5.443h0.615l1.755-5.443l21.599-67.523c1.053-3.1,4.156-4.651,9.308-4.651h4.741c6.263,0,9.395,1.173,9.395,3.513
				c0,1.052-0.177,1.989-0.527,2.81l-33.716,100.357c-0.353,1.173-1.273,2.007-2.765,2.505c-1.494,0.496-3.47,0.745-5.927,0.745
				h-8.078C-2320.713-363.229-2322.705-363.478-2324.166-363.974z"/>
		</g>
		<g>
			<path fill="#444444" d="M-2252.036-459.812c-1.494-0.82-2.239-2.079-2.239-3.777v-12.555c0-1.696,0.761-2.97,2.283-3.819
				c1.522-0.849,3.893-1.274,7.114-1.274h4.301c3.218,0,5.588,0.425,7.111,1.274c1.522,0.85,2.283,2.123,2.283,3.819v12.555
				c0,1.698-0.747,2.958-2.239,3.777c-1.494,0.82-3.878,1.228-7.155,1.228h-4.301
				C-2248.157-458.583-2250.542-458.992-2252.036-459.812z M-2254.274-368.146v-72.351c0-1.638,0.761-2.866,2.283-3.686
				c1.522-0.82,3.893-1.231,7.114-1.231h4.301c3.218,0,5.588,0.411,7.111,1.231c1.522,0.82,2.283,2.048,2.283,3.686v72.351
				c0,3.279-3.132,4.917-9.394,4.917h-4.301C-2251.143-363.229-2254.274-364.866-2254.274-368.146z"/>
		</g>
		<g>
			<path fill="#444444" d="M-2201.819-363.492c-3.979-0.878-7.273-2.135-9.876-3.775c-2.605-1.64-3.907-3.512-3.907-5.619
				c0-1.287,0.468-2.896,1.405-4.828c0.935-1.931,2.062-3.615,3.381-5.051c1.314-1.433,2.471-2.151,3.467-2.151
				c0.526,0,1.668,0.411,3.425,1.23c2.049,0.938,4.008,1.699,5.882,2.283c1.873,0.585,4.009,0.876,6.41,0.876
				c2.985,0,5.239-0.554,6.761-1.668c1.521-1.111,2.283-2.75,2.283-4.917c0-1.637-0.456-2.997-1.363-4.08s-2.063-1.976-3.468-2.678
				c-1.405-0.703-3.395-1.553-5.969-2.549l-2.546-0.965c-3.336-1.288-6.263-2.749-8.782-4.389s-4.654-4.025-6.409-7.156
				c-1.757-3.132-2.634-7.096-2.634-11.899c0-5.326,1.157-9.906,3.468-13.74c2.311-3.834,5.605-6.759,9.879-8.78
				c4.271-2.02,9.305-3.03,15.101-3.03c3.336,0,6.819,0.322,10.449,0.966c3.627,0.644,6.686,1.64,9.174,2.986
				s3.733,3.044,3.733,5.093c0,1.17-0.367,2.751-1.098,4.741c-0.733,1.991-1.626,3.746-2.678,5.269
				c-1.056,1.523-2.052,2.282-2.986,2.282c-0.294,0-1.113-0.263-2.457-0.79c-1.816-0.761-3.557-1.36-5.225-1.8
				c-1.669-0.439-3.585-0.66-5.751-0.66c-5.502,0-8.253,1.816-8.253,5.443c0,1.641,0.512,3.047,1.536,4.217
				c1.023,1.17,2.295,2.136,3.818,2.897c1.521,0.761,3.656,1.668,6.41,2.72c3.16,1.29,5.122,2.109,5.883,2.46
				c4.097,2.048,7.388,4.757,9.876,8.121c2.487,3.366,3.733,7.858,3.733,13.479c0,5.327-1.2,10.01-3.602,14.048
				c-2.401,4.041-5.914,7.173-10.536,9.397c-4.623,2.222-10.125,3.335-16.506,3.335
				C-2193.829-362.174-2197.839-362.614-2201.819-363.492z"/>
		</g>
		<g>
			<path fill="#444444" d="M-2151.971-366.654c0-0.644,0.204-1.579,0.615-2.811l34.42-100.357c0.817-2.222,3.775-3.336,8.868-3.336
				h8.077c5.093,0,8.048,1.114,8.869,3.336l34.418,100.357c0.291,1.173,0.439,2.111,0.439,2.811c0,1.172-0.629,2.037-1.889,2.591
				c-1.259,0.557-3.234,0.834-5.927,0.834h-6.848c-2.46,0-4.436-0.249-5.928-0.745c-1.494-0.498-2.415-1.332-2.765-2.505
				l-6.322-19.052h-36.789l-6.322,19.052c-0.644,2.167-3.044,3.25-7.201,3.25h-6.145
				C-2148.781-363.229-2151.971-364.371-2151.971-366.654z M-2092.616-406.164l-8.869-27.748c-0.527-1.405-0.981-3.014-1.362-4.828
				c-0.38-1.813-0.716-3.542-1.007-5.182h-0.616l-0.353,1.934c-0.584,3.453-1.256,6.146-2.018,8.077l-9.221,27.748H-2092.616z"/>
		</g>
		<g>
			<path fill="#444444" d="M-2043.695-368.146v-49.521c0-7.491-0.499-13.726-1.494-18.702c-0.293-1.579-0.439-2.692-0.439-3.338
				c0-1.17,1.098-2.119,3.293-2.852c2.195-0.73,4.683-1.271,7.464-1.624c2.78-0.353,5.019-0.528,6.717-0.528
				c1.813,0,3.088,0.674,3.819,2.02c0.731,1.346,1.389,3.307,1.976,5.882l0.527,2.283c1.989-3.63,4.287-6.512,6.893-8.649
				c2.603-2.136,5.955-3.205,10.053-3.205c3.395,0,5.736,0.864,7.023,2.592c1.288,1.727,1.935,3.671,1.935,5.837
				c0,1.17-0.207,2.824-0.616,4.962c-0.41,2.138-0.996,4.024-1.757,5.664c-0.761,1.64-1.609,2.458-2.545,2.458
				c-0.644,0-1.611-0.173-2.899-0.526c-1.757-0.468-3.249-0.703-4.477-0.703c-2.869,0-5.371,0.807-7.508,2.416
				c-2.138,1.609-3.761,3.408-4.873,5.398v50.136c0,3.279-3.162,4.917-9.481,4.917h-4.304
				C-2040.595-363.229-2043.695-364.866-2043.695-368.146z"/>
		</g>
		<g>
			<path fill="#444444" d="M-1973.038-368.602c-3.892-4.187-5.838-10.553-5.838-19.099v-39.336h-2.458
				c-1.64,0-2.826-0.613-3.557-1.844c-0.732-1.229-1.097-3.219-1.097-5.97v-2.633c0-2.751,0.364-4.741,1.097-5.972
				c0.73-1.229,1.917-1.844,3.557-1.844h2.458l2.02-14.838c0.469-3.277,3.277-4.918,8.43-4.918h4.917
				c2.692,0,4.666,0.411,5.925,1.229c1.259,0.82,1.889,2.049,1.889,3.689v14.838h7.64c1.64,0,2.824,0.615,3.557,1.844
				c0.73,1.231,1.097,3.221,1.097,5.972v2.633c0,2.751-0.366,4.741-1.097,5.97c-0.733,1.23-1.917,1.844-3.557,1.844h-7.64v39.6
				c0,2.4,0.423,4.129,1.273,5.182c0.848,1.053,2.267,1.579,4.259,1.579c0.585,0,1.375-0.102,2.371-0.306
				c0.996-0.204,1.609-0.308,1.844-0.308c0.935,0,1.769,0.775,2.501,2.326c0.73,1.55,1.316,3.263,1.755,5.135
				c0.439,1.875,0.66,3.133,0.66,3.778c0,5.152-5.006,7.726-15.014,7.726C-1963.481-362.325-1969.145-364.415-1973.038-368.602z"/>
		</g>
		<g>
			<path fill="#444444" d="M-1917.157-375.87c-8.343-9.132-12.512-23.329-12.512-42.588c0-37.053,17.385-55.578,52.156-55.578
				c4.741,0,9.655,0.47,14.749,1.404c5.093,0.938,9.35,2.24,12.774,3.907c3.426,1.667,5.138,3.525,5.138,5.575
				c0,1.466-0.587,3.382-1.757,5.753c-1.17,2.371-2.561,4.464-4.17,6.276c-1.609,1.814-3.028,2.721-4.257,2.721
				c-0.293,0-1.083-0.291-2.37-0.876c-2.81-1.17-5.753-2.151-8.826-2.941c-3.073-0.789-6.979-1.187-11.721-1.187
				c-9.19,0-15.996,2.914-20.415,8.737c-4.421,5.826-6.63,14.619-6.63,26.384s2.223,20.633,6.672,26.606
				c4.45,5.972,11.122,8.955,20.021,8.955c4.624,0,8.648-0.467,12.073-1.404c3.425-0.935,6.774-2.136,10.055-3.602
				c0.174-0.056,0.7-0.277,1.578-0.657c0.879-0.381,1.523-0.571,1.934-0.571c1.522,0,2.986,0.893,4.391,2.677
				c1.405,1.786,2.543,3.806,3.422,6.059c0.879,2.255,1.318,3.879,1.318,4.873c0,2.87-1.917,5.299-5.751,7.289
				c-3.833,1.99-8.459,3.468-13.874,4.433c-5.416,0.966-10.464,1.45-15.146,1.45
				C-1895.866-362.174-1908.817-366.738-1917.157-375.87z"/>
		</g>
		<g>
			<path fill="#444444" d="M-1823.699-373.061c-6.47-7.259-9.703-17.709-9.703-31.349c0-13.579,3.232-23.97,9.703-31.17
				c6.467-7.198,15.876-10.8,28.229-10.8c12.35,0,21.73,3.588,28.139,10.757c6.409,7.17,9.616,17.575,9.616,31.212
				c0,13.64-3.207,24.089-9.616,31.349c-6.408,7.259-15.789,10.886-28.139,10.886
				C-1807.822-362.174-1817.231-365.801-1823.699-373.061z M-1784.626-386.496c2.312-3.98,3.467-9.952,3.467-17.914
				c0-7.9-1.155-13.842-3.467-17.822c-2.312-3.979-5.926-5.972-10.843-5.972c-9.717,0-14.575,7.932-14.575,23.794
				c0,7.903,1.184,13.861,3.554,17.868c2.37,4.011,6.045,6.014,11.021,6.014C-1790.553-380.527-1786.938-382.517-1784.626-386.496z"
				/>
		</g>
		<g>
			<path fill="#444444" d="M-1734.864-368.452c-3.893-4.186-5.838-10.553-5.838-19.099v-88.593c0-3.395,3.133-5.093,9.396-5.093
				h4.391c3.219,0,5.574,0.425,7.068,1.274c1.493,0.85,2.239,2.123,2.239,3.819v88.855c0,2.401,0.438,4.13,1.315,5.183
				c0.879,1.052,2.343,1.578,4.391,1.578c0.526,0,1.315-0.115,2.37-0.35c0.292-0.059,0.585-0.117,0.879-0.176
				c0.292-0.057,0.613-0.087,0.966-0.087c0.878,0,1.681,0.775,2.415,2.325c0.73,1.551,1.302,3.278,1.71,5.18
				c0.408,1.903,0.615,3.149,0.615,3.733c0,5.152-4.975,7.727-14.924,7.727C-1725.307-362.174-1730.971-364.265-1734.864-368.452z"
				/>
		</g>
	</g>
</g>
</svg>
